<?xml version="1.0" standalone="no"?>
<!DOCTYPE svg PUBLIC "-//W3C//DTD SVG 20010904//EN"
 "http://www.w3.org/TR/2001/REC-SVG-20010904/DTD/svg10.dtd">
<svg version="1.0" xmlns="http://www.w3.org/2000/svg"
 width="260.000000pt" height="260.000000pt" viewBox="0 0 260.000000 260.000000"
 preserveAspectRatio="xMidYMid meet">
<metadata>
Created by potrace 1.11, written by Peter Selinger 2001-2013
</metadata>
<g transform="translate(0.000000,260.000000) scale(0.100000,-0.100000)"
fill="#000000" stroke="none">
<path d="M940 2411 c0 -5 -64 -75 -142 -155 l-143 -146 -71 0 -71 0 -28 -67
c-57 -138 -86 -184 -155 -253 -39 -39 -70 -72 -70 -75 0 -3 26 -4 58 -3 l57 3
3 -70 c3 -67 2 -71 -37 -126 -23 -32 -49 -79 -59 -106 -11 -26 -23 -57 -27
-68 -5 -11 -9 -23 -10 -27 -2 -5 -4 -11 -5 -15 -1 -5 -2 -11 -1 -15 0 -5 -4
-8 -9 -8 -6 0 -10 -15 -10 -34 0 -19 -4 -37 -9 -40 -5 -4 -8 -14 -6 -24 1 -9
-2 -25 -7 -36 -7 -12 -6 -22 0 -28 6 -6 7 -20 3 -32 -7 -19 -7 -42 -1 -48 1
-2 3 -21 4 -44 1 -22 7 -54 13 -70 6 -16 19 -60 28 -99 10 -38 23 -77 30 -85
6 -8 28 -44 49 -80 57 -101 133 -191 200 -237 33 -24 66 -43 72 -43 5 0 25
-11 43 -24 18 -14 54 -29 80 -35 26 -5 60 -15 76 -22 39 -15 106 -21 230 -21
122 1 179 9 227 33 21 11 44 19 52 19 39 0 221 123 291 196 l51 54 34 -24 c19
-12 66 -40 103 -61 38 -21 71 -45 75 -54 11 -31 47 -62 120 -104 40 -23 94
-54 120 -70 26 -15 61 -34 79 -42 17 -8 34 -19 38 -25 3 -5 14 -10 24 -10 10
0 24 -7 32 -16 11 -14 13 -14 21 0 5 9 16 16 24 16 8 0 32 19 53 42 35 37 39
46 37 84 -4 59 -28 78 -234 186 -50 26 -110 61 -133 77 -32 24 -45 28 -64 21
-18 -7 -33 -2 -70 21 -25 16 -73 43 -105 59 -32 16 -61 34 -65 39 -3 6 1 24 9
40 18 35 42 104 50 146 3 17 9 46 12 65 10 50 11 181 2 210 -4 14 -9 41 -11
60 -3 19 -8 44 -12 55 -30 84 -65 159 -99 210 -37 55 -41 66 -42 128 0 40 4
68 10 69 6 0 23 2 38 2 35 2 32 12 -14 54 -30 27 -37 40 -36 67 1 30 5 34 30
37 28 3 20 12 -143 176 l-173 172 -46 -45 c-25 -25 -50 -45 -55 -45 -6 0 -57
48 -115 107 -130 133 -200 197 -200 184z"/>
</g>
</svg>
